<mxfile host="app.diagrams.net" agent="Mozilla/5.0 (Windows NT 10.0; Win64; x64) AppleWebKit/537.36 (KHTML, like Gecko) Chrome/139.0.0.0 Safari/537.36" version="28.1.0">
  <diagram name="Page-1" id="ArYvQWz8uS_SRna2M3tw">
    <mxGraphModel dx="1158" dy="624" grid="1" gridSize="10" guides="1" tooltips="1" connect="1" arrows="1" fold="1" page="1" pageScale="1" pageWidth="1169" pageHeight="827" background="#ffffff" math="0" shadow="0">
      <root>
        <mxCell id="0" />
        <mxCell id="1" parent="0" />
        <mxCell id="85A1zi-xs63oEvVvTNi3-9" value="&lt;font face=&quot;Times New Roman&quot;&gt;USER&lt;/font&gt;" style="rounded=0;whiteSpace=wrap;html=1;hachureGap=4;fontFamily=Architects Daughter;fontSource=https%3A%2F%2Ffonts.googleapis.com%2Fcss%3Ffamily%3DArchitects%2BDaughter;labelBackgroundColor=none;" parent="1" vertex="1">
          <mxGeometry x="200" y="165" width="90" height="40" as="geometry" />
        </mxCell>
        <mxCell id="85A1zi-xs63oEvVvTNi3-12" value="&lt;font face=&quot;Times New Roman&quot;&gt;SESSION&lt;/font&gt;" style="rounded=0;whiteSpace=wrap;html=1;hachureGap=4;fontFamily=Architects Daughter;fontSource=https://fonts.googleapis.com/css?family=Architects+Daughter;labelBackgroundColor=none;" parent="1" vertex="1">
          <mxGeometry x="540" y="170" width="90" height="40" as="geometry" />
        </mxCell>
        <mxCell id="85A1zi-xs63oEvVvTNi3-14" value="&lt;font face=&quot;Times New Roman&quot;&gt;CONVERSATION&lt;/font&gt;" style="rounded=0;whiteSpace=wrap;html=1;hachureGap=4;fontFamily=Architects Daughter;fontSource=https://fonts.googleapis.com/css?family=Architects+Daughter;labelBackgroundColor=none;" parent="1" vertex="1">
          <mxGeometry x="540" y="360" width="90" height="40" as="geometry" />
        </mxCell>
        <mxCell id="85A1zi-xs63oEvVvTNi3-15" value="&lt;font face=&quot;Times New Roman&quot;&gt;user_id&lt;/font&gt;" style="ellipse;whiteSpace=wrap;html=1;rounded=0;hachureGap=4;align=center;verticalAlign=middle;fontFamily=Architects Daughter;fontSource=https%3A%2F%2Ffonts.googleapis.com%2Fcss%3Ffamily%3DArchitects%2BDaughter;fontSize=12;labelBackgroundColor=none;" parent="1" vertex="1">
          <mxGeometry y="30" width="80" height="50" as="geometry" />
        </mxCell>
        <mxCell id="85A1zi-xs63oEvVvTNi3-17" value="&lt;font face=&quot;Times New Roman&quot;&gt;name&lt;/font&gt;" style="ellipse;whiteSpace=wrap;html=1;rounded=0;hachureGap=4;align=center;verticalAlign=middle;fontFamily=Architects Daughter;fontSource=https://fonts.googleapis.com/css?family=Architects+Daughter;fontSize=12;labelBackgroundColor=none;" parent="1" vertex="1">
          <mxGeometry y="95" width="80" height="50" as="geometry" />
        </mxCell>
        <mxCell id="85A1zi-xs63oEvVvTNi3-18" value="&lt;font face=&quot;Times New Roman&quot;&gt;email&lt;/font&gt;" style="ellipse;whiteSpace=wrap;html=1;rounded=0;hachureGap=4;align=center;verticalAlign=middle;fontFamily=Architects Daughter;fontSource=https://fonts.googleapis.com/css?family=Architects+Daughter;fontSize=12;labelBackgroundColor=none;" parent="1" vertex="1">
          <mxGeometry y="155" width="80" height="50" as="geometry" />
        </mxCell>
        <mxCell id="85A1zi-xs63oEvVvTNi3-19" value="&lt;font face=&quot;Times New Roman&quot;&gt;password&lt;/font&gt;" style="ellipse;whiteSpace=wrap;html=1;rounded=0;hachureGap=4;align=center;verticalAlign=middle;fontFamily=Architects Daughter;fontSource=https://fonts.googleapis.com/css?family=Architects+Daughter;fontSize=12;labelBackgroundColor=none;" parent="1" vertex="1">
          <mxGeometry y="220" width="80" height="50" as="geometry" />
        </mxCell>
        <mxCell id="85A1zi-xs63oEvVvTNi3-20" value="&lt;font face=&quot;Times New Roman&quot;&gt;created_at&lt;/font&gt;" style="ellipse;whiteSpace=wrap;html=1;rounded=0;hachureGap=4;align=center;verticalAlign=middle;fontFamily=Architects Daughter;fontSource=https://fonts.googleapis.com/css?family=Architects+Daughter;fontSize=12;labelBackgroundColor=none;" parent="1" vertex="1">
          <mxGeometry y="280" width="80" height="50" as="geometry" />
        </mxCell>
        <mxCell id="85A1zi-xs63oEvVvTNi3-23" value="&lt;font face=&quot;Times New Roman&quot;&gt;Starts&lt;/font&gt;" style="rhombus;whiteSpace=wrap;html=1;rounded=0;hachureGap=4;align=center;verticalAlign=middle;fontFamily=Architects Daughter;fontSource=https://fonts.googleapis.com/css?family=Architects+Daughter;fontSize=12;labelBackgroundColor=none;" parent="1" vertex="1">
          <mxGeometry x="340" y="170" width="120" height="40" as="geometry" />
        </mxCell>
        <mxCell id="85A1zi-xs63oEvVvTNi3-25" value="&lt;font face=&quot;Times New Roman&quot;&gt;Includes&lt;/font&gt;" style="rhombus;whiteSpace=wrap;html=1;rounded=0;hachureGap=4;align=center;verticalAlign=middle;fontFamily=Architects Daughter;fontSource=https://fonts.googleapis.com/css?family=Architects+Daughter;fontSize=12;labelBackgroundColor=none;" parent="1" vertex="1">
          <mxGeometry x="525" y="250" width="120" height="40" as="geometry" />
        </mxCell>
        <mxCell id="85A1zi-xs63oEvVvTNi3-27" value="&lt;font face=&quot;Times New Roman&quot;&gt;session_id&lt;/font&gt;" style="ellipse;whiteSpace=wrap;html=1;rounded=0;hachureGap=4;align=center;verticalAlign=middle;fontFamily=Architects Daughter;fontSource=https://fonts.googleapis.com/css?family=Architects+Daughter;fontSize=12;labelBackgroundColor=none;" parent="1" vertex="1">
          <mxGeometry x="430" y="70" width="80" height="50" as="geometry" />
        </mxCell>
        <mxCell id="85A1zi-xs63oEvVvTNi3-28" value="&lt;font face=&quot;Times New Roman&quot;&gt;user_id&lt;/font&gt;" style="ellipse;whiteSpace=wrap;html=1;rounded=0;hachureGap=4;align=center;verticalAlign=middle;fontFamily=Architects Daughter;fontSource=https://fonts.googleapis.com/css?family=Architects+Daughter;fontSize=12;labelBackgroundColor=none;" parent="1" vertex="1">
          <mxGeometry x="520" y="70" width="80" height="50" as="geometry" />
        </mxCell>
        <mxCell id="85A1zi-xs63oEvVvTNi3-29" value="&lt;font face=&quot;Times New Roman&quot;&gt;started_id&lt;/font&gt;" style="ellipse;whiteSpace=wrap;html=1;rounded=0;hachureGap=4;align=center;verticalAlign=middle;fontFamily=Architects Daughter;fontSource=https://fonts.googleapis.com/css?family=Architects+Daughter;fontSize=12;labelBackgroundColor=none;" parent="1" vertex="1">
          <mxGeometry x="610" y="70" width="80" height="50" as="geometry" />
        </mxCell>
        <mxCell id="85A1zi-xs63oEvVvTNi3-30" value="&lt;font face=&quot;Times New Roman&quot;&gt;ended_id&lt;/font&gt;" style="ellipse;whiteSpace=wrap;html=1;rounded=0;hachureGap=4;align=center;verticalAlign=middle;fontFamily=Architects Daughter;fontSource=https://fonts.googleapis.com/css?family=Architects+Daughter;fontSize=12;labelBackgroundColor=none;" parent="1" vertex="1">
          <mxGeometry x="700" y="70" width="80" height="50" as="geometry" />
        </mxCell>
        <mxCell id="85A1zi-xs63oEvVvTNi3-35" value="&lt;font face=&quot;Times New Roman&quot;&gt;token&lt;/font&gt;" style="ellipse;whiteSpace=wrap;html=1;rounded=0;hachureGap=4;align=center;verticalAlign=middle;fontFamily=Architects Daughter;fontSource=https://fonts.googleapis.com/css?family=Architects+Daughter;fontSize=12;labelBackgroundColor=none;" parent="1" vertex="1">
          <mxGeometry x="460" y="490" width="90" height="50" as="geometry" />
        </mxCell>
        <mxCell id="85A1zi-xs63oEvVvTNi3-38" value="&lt;font face=&quot;Times New Roman&quot;&gt;response_text&lt;/font&gt;" style="ellipse;whiteSpace=wrap;html=1;rounded=0;hachureGap=4;align=center;verticalAlign=middle;fontFamily=Architects Daughter;fontSource=https://fonts.googleapis.com/css?family=Architects+Daughter;fontSize=12;labelBackgroundColor=none;" parent="1" vertex="1">
          <mxGeometry x="650" y="490" width="80" height="50" as="geometry" />
        </mxCell>
        <mxCell id="85A1zi-xs63oEvVvTNi3-39" value="&lt;font face=&quot;Times New Roman&quot;&gt;audio_path&lt;/font&gt;" style="ellipse;whiteSpace=wrap;html=1;rounded=0;hachureGap=4;align=center;verticalAlign=middle;fontFamily=Architects Daughter;fontSource=https://fonts.googleapis.com/css?family=Architects+Daughter;fontSize=12;labelBackgroundColor=none;" parent="1" vertex="1">
          <mxGeometry x="370" y="490" width="80" height="50" as="geometry" />
        </mxCell>
        <mxCell id="85A1zi-xs63oEvVvTNi3-40" value="&lt;font face=&quot;Times New Roman&quot;&gt;timestamp&lt;/font&gt;" style="ellipse;whiteSpace=wrap;html=1;rounded=0;hachureGap=4;align=center;verticalAlign=middle;fontFamily=Architects Daughter;fontSource=https://fonts.googleapis.com/css?family=Architects+Daughter;fontSize=12;labelBackgroundColor=none;" parent="1" vertex="1">
          <mxGeometry x="740" y="490" width="80" height="50" as="geometry" />
        </mxCell>
        <mxCell id="o0YhclstvYIt8GNL4tOj-7" value="" style="endArrow=classic;html=1;rounded=0;exitX=0.5;exitY=1;exitDx=0;exitDy=0;entryX=0.5;entryY=0;entryDx=0;entryDy=0;labelBackgroundColor=none;fontColor=default;" edge="1" parent="1" source="85A1zi-xs63oEvVvTNi3-25" target="85A1zi-xs63oEvVvTNi3-14">
          <mxGeometry width="50" height="50" relative="1" as="geometry">
            <mxPoint x="620" y="280" as="sourcePoint" />
            <mxPoint x="620.73" y="370.24" as="targetPoint" />
          </mxGeometry>
        </mxCell>
        <mxCell id="o0YhclstvYIt8GNL4tOj-9" value="" style="endArrow=classic;html=1;rounded=0;entryX=1;entryY=0.5;entryDx=0;entryDy=0;exitX=-0.003;exitY=0.62;exitDx=0;exitDy=0;exitPerimeter=0;labelBackgroundColor=none;fontColor=default;" edge="1" parent="1" source="85A1zi-xs63oEvVvTNi3-9" target="85A1zi-xs63oEvVvTNi3-17">
          <mxGeometry width="50" height="50" relative="1" as="geometry">
            <mxPoint x="150" y="180" as="sourcePoint" />
            <mxPoint x="290" y="150" as="targetPoint" />
            <Array as="points">
              <mxPoint x="140" y="190" />
              <mxPoint x="140" y="180" />
              <mxPoint x="140" y="120" />
            </Array>
          </mxGeometry>
        </mxCell>
        <mxCell id="o0YhclstvYIt8GNL4tOj-11" value="" style="endArrow=classic;html=1;rounded=0;entryX=0.995;entryY=0.605;entryDx=0;entryDy=0;entryPerimeter=0;labelBackgroundColor=none;fontColor=default;" edge="1" parent="1" target="85A1zi-xs63oEvVvTNi3-19">
          <mxGeometry width="50" height="50" relative="1" as="geometry">
            <mxPoint x="150" y="190" as="sourcePoint" />
            <mxPoint x="110" y="180" as="targetPoint" />
            <Array as="points">
              <mxPoint x="140" y="190" />
              <mxPoint x="140" y="200" />
              <mxPoint x="140" y="250" />
            </Array>
          </mxGeometry>
        </mxCell>
        <mxCell id="o0YhclstvYIt8GNL4tOj-13" value="" style="endArrow=classic;html=1;rounded=0;entryX=1;entryY=0.5;entryDx=0;entryDy=0;labelBackgroundColor=none;fontColor=default;" edge="1" parent="1" target="85A1zi-xs63oEvVvTNi3-15">
          <mxGeometry width="50" height="50" relative="1" as="geometry">
            <mxPoint x="140" y="120" as="sourcePoint" />
            <mxPoint x="140" y="90" as="targetPoint" />
            <Array as="points">
              <mxPoint x="140" y="55" />
            </Array>
          </mxGeometry>
        </mxCell>
        <mxCell id="o0YhclstvYIt8GNL4tOj-14" value="" style="endArrow=classic;html=1;rounded=0;entryX=0.933;entryY=0.696;entryDx=0;entryDy=0;entryPerimeter=0;labelBackgroundColor=none;fontColor=default;" edge="1" parent="1" target="85A1zi-xs63oEvVvTNi3-18">
          <mxGeometry width="50" height="50" relative="1" as="geometry">
            <mxPoint x="150" y="190" as="sourcePoint" />
            <mxPoint x="140" y="180" as="targetPoint" />
          </mxGeometry>
        </mxCell>
        <mxCell id="o0YhclstvYIt8GNL4tOj-16" value="" style="endArrow=classic;html=1;rounded=0;entryX=0.981;entryY=0.59;entryDx=0;entryDy=0;entryPerimeter=0;labelBackgroundColor=none;fontColor=default;" edge="1" parent="1" target="85A1zi-xs63oEvVvTNi3-20">
          <mxGeometry width="50" height="50" relative="1" as="geometry">
            <mxPoint x="140" y="250" as="sourcePoint" />
            <mxPoint x="120" y="270" as="targetPoint" />
            <Array as="points">
              <mxPoint x="140" y="310" />
            </Array>
          </mxGeometry>
        </mxCell>
        <mxCell id="o0YhclstvYIt8GNL4tOj-18" value="" style="endArrow=classic;html=1;rounded=0;exitX=1;exitY=0.5;exitDx=0;exitDy=0;entryX=0;entryY=0.5;entryDx=0;entryDy=0;labelBackgroundColor=none;fontColor=default;" edge="1" parent="1">
          <mxGeometry width="50" height="50" relative="1" as="geometry">
            <mxPoint x="290" y="189.86" as="sourcePoint" />
            <mxPoint x="340" y="189.86" as="targetPoint" />
          </mxGeometry>
        </mxCell>
        <mxCell id="o0YhclstvYIt8GNL4tOj-19" value="" style="endArrow=classic;html=1;rounded=0;exitX=0.431;exitY=0.983;exitDx=0;exitDy=0;exitPerimeter=0;labelBackgroundColor=none;fontColor=default;" edge="1" parent="1" source="85A1zi-xs63oEvVvTNi3-9" target="o0YhclstvYIt8GNL4tOj-33">
          <mxGeometry width="50" height="50" relative="1" as="geometry">
            <mxPoint x="240" y="210" as="sourcePoint" />
            <mxPoint x="350" y="282.5" as="targetPoint" />
            <Array as="points">
              <mxPoint x="240" y="380" />
            </Array>
          </mxGeometry>
        </mxCell>
        <mxCell id="o0YhclstvYIt8GNL4tOj-27" value="" style="endArrow=classic;html=1;rounded=0;exitX=1;exitY=0.5;exitDx=0;exitDy=0;entryX=0;entryY=0.5;entryDx=0;entryDy=0;labelBackgroundColor=none;fontColor=default;" edge="1" parent="1" source="85A1zi-xs63oEvVvTNi3-23" target="85A1zi-xs63oEvVvTNi3-12">
          <mxGeometry width="50" height="50" relative="1" as="geometry">
            <mxPoint x="500" y="250" as="sourcePoint" />
            <mxPoint x="550" y="200" as="targetPoint" />
          </mxGeometry>
        </mxCell>
        <mxCell id="o0YhclstvYIt8GNL4tOj-32" value="" style="endArrow=classic;html=1;rounded=0;exitX=0.5;exitY=1;exitDx=0;exitDy=0;labelBackgroundColor=none;fontColor=default;" edge="1" parent="1" source="85A1zi-xs63oEvVvTNi3-12" target="85A1zi-xs63oEvVvTNi3-25">
          <mxGeometry width="50" height="50" relative="1" as="geometry">
            <mxPoint x="610" y="340" as="sourcePoint" />
            <mxPoint x="520" y="270" as="targetPoint" />
          </mxGeometry>
        </mxCell>
        <mxCell id="o0YhclstvYIt8GNL4tOj-33" value="&lt;font face=&quot;Times New Roman&quot;&gt;Makes&lt;/font&gt;" style="rhombus;whiteSpace=wrap;html=1;rounded=0;hachureGap=4;align=center;verticalAlign=middle;fontFamily=Architects Daughter;fontSource=https://fonts.googleapis.com/css?family=Architects+Daughter;fontSize=12;labelBackgroundColor=none;" vertex="1" parent="1">
          <mxGeometry x="340" y="360" width="120" height="40" as="geometry" />
        </mxCell>
        <mxCell id="o0YhclstvYIt8GNL4tOj-34" value="" style="endArrow=classic;html=1;rounded=0;exitX=0.5;exitY=1;exitDx=0;exitDy=0;labelBackgroundColor=none;fontColor=default;" edge="1" parent="1">
          <mxGeometry width="50" height="50" relative="1" as="geometry">
            <mxPoint x="475" y="120" as="sourcePoint" />
            <mxPoint x="585" y="170" as="targetPoint" />
            <Array as="points">
              <mxPoint x="475" y="130" />
              <mxPoint x="585" y="130" />
            </Array>
          </mxGeometry>
        </mxCell>
        <mxCell id="o0YhclstvYIt8GNL4tOj-40" value="" style="endArrow=none;html=1;rounded=0;exitX=0.5;exitY=1;exitDx=0;exitDy=0;labelBackgroundColor=none;fontColor=default;" edge="1" parent="1" source="85A1zi-xs63oEvVvTNi3-28">
          <mxGeometry width="50" height="50" relative="1" as="geometry">
            <mxPoint x="530" y="180" as="sourcePoint" />
            <mxPoint x="560" y="130" as="targetPoint" />
          </mxGeometry>
        </mxCell>
        <mxCell id="o0YhclstvYIt8GNL4tOj-41" value="" style="endArrow=none;html=1;rounded=0;labelBackgroundColor=none;fontColor=default;" edge="1" parent="1">
          <mxGeometry width="50" height="50" relative="1" as="geometry">
            <mxPoint x="580" y="130" as="sourcePoint" />
            <mxPoint x="650" y="120" as="targetPoint" />
            <Array as="points">
              <mxPoint x="650" y="130" />
            </Array>
          </mxGeometry>
        </mxCell>
        <mxCell id="o0YhclstvYIt8GNL4tOj-42" value="" style="endArrow=none;html=1;rounded=0;entryX=0.5;entryY=1;entryDx=0;entryDy=0;labelBackgroundColor=none;fontColor=default;" edge="1" parent="1" target="85A1zi-xs63oEvVvTNi3-30">
          <mxGeometry width="50" height="50" relative="1" as="geometry">
            <mxPoint x="650" y="130" as="sourcePoint" />
            <mxPoint x="730" y="130" as="targetPoint" />
            <Array as="points">
              <mxPoint x="740" y="130" />
            </Array>
          </mxGeometry>
        </mxCell>
        <mxCell id="o0YhclstvYIt8GNL4tOj-43" value="" style="endArrow=classic;html=1;rounded=0;exitX=1;exitY=0.5;exitDx=0;exitDy=0;labelBackgroundColor=none;fontColor=default;" edge="1" parent="1" source="o0YhclstvYIt8GNL4tOj-33" target="85A1zi-xs63oEvVvTNi3-14">
          <mxGeometry width="50" height="50" relative="1" as="geometry">
            <mxPoint x="595" y="300" as="sourcePoint" />
            <mxPoint x="595" y="370" as="targetPoint" />
          </mxGeometry>
        </mxCell>
        <mxCell id="85A1zi-xs63oEvVvTNi3-37" value="&lt;font face=&quot;Times New Roman&quot;&gt;query_text&lt;/font&gt;" style="ellipse;whiteSpace=wrap;html=1;rounded=0;hachureGap=4;align=center;verticalAlign=middle;fontFamily=Architects Daughter;fontSource=https://fonts.googleapis.com/css?family=Architects+Daughter;fontSize=12;labelBackgroundColor=none;" parent="1" vertex="1">
          <mxGeometry x="560" y="490" width="80" height="50" as="geometry" />
        </mxCell>
        <mxCell id="o0YhclstvYIt8GNL4tOj-45" value="" style="endArrow=classic;html=1;rounded=0;entryX=0.556;entryY=0;entryDx=0;entryDy=0;entryPerimeter=0;exitX=0.445;exitY=1.02;exitDx=0;exitDy=0;exitPerimeter=0;labelBackgroundColor=none;fontColor=default;" edge="1" parent="1" source="85A1zi-xs63oEvVvTNi3-14" target="85A1zi-xs63oEvVvTNi3-35">
          <mxGeometry width="50" height="50" relative="1" as="geometry">
            <mxPoint x="581" y="403" as="sourcePoint" />
            <mxPoint x="600" y="390" as="targetPoint" />
            <Array as="points">
              <mxPoint x="580" y="440" />
              <mxPoint x="510" y="440" />
            </Array>
          </mxGeometry>
        </mxCell>
        <mxCell id="o0YhclstvYIt8GNL4tOj-46" value="" style="endArrow=classic;html=1;rounded=0;entryX=0.5;entryY=0;entryDx=0;entryDy=0;labelBackgroundColor=none;fontColor=default;" edge="1" parent="1" target="85A1zi-xs63oEvVvTNi3-39">
          <mxGeometry width="50" height="50" relative="1" as="geometry">
            <mxPoint x="580" y="400" as="sourcePoint" />
            <mxPoint x="600" y="390" as="targetPoint" />
            <Array as="points">
              <mxPoint x="580" y="440" />
              <mxPoint x="410" y="440" />
            </Array>
          </mxGeometry>
        </mxCell>
        <mxCell id="o0YhclstvYIt8GNL4tOj-48" value="" style="endArrow=classic;html=1;rounded=0;entryX=0.5;entryY=0;entryDx=0;entryDy=0;labelBackgroundColor=none;fontColor=default;" edge="1" parent="1" target="85A1zi-xs63oEvVvTNi3-37">
          <mxGeometry width="50" height="50" relative="1" as="geometry">
            <mxPoint x="580" y="400" as="sourcePoint" />
            <mxPoint x="610" y="410" as="targetPoint" />
            <Array as="points">
              <mxPoint x="580" y="440" />
              <mxPoint x="600" y="440" />
            </Array>
          </mxGeometry>
        </mxCell>
        <mxCell id="o0YhclstvYIt8GNL4tOj-49" value="" style="endArrow=classic;html=1;rounded=0;entryX=0.5;entryY=0;entryDx=0;entryDy=0;labelBackgroundColor=none;fontColor=default;" edge="1" parent="1" target="85A1zi-xs63oEvVvTNi3-38">
          <mxGeometry width="50" height="50" relative="1" as="geometry">
            <mxPoint x="600" y="440" as="sourcePoint" />
            <mxPoint x="520" y="430" as="targetPoint" />
            <Array as="points">
              <mxPoint x="690" y="440" />
            </Array>
          </mxGeometry>
        </mxCell>
        <mxCell id="o0YhclstvYIt8GNL4tOj-50" value="" style="endArrow=classic;html=1;rounded=0;entryX=0.5;entryY=0;entryDx=0;entryDy=0;labelBackgroundColor=none;fontColor=default;" edge="1" parent="1" target="85A1zi-xs63oEvVvTNi3-40">
          <mxGeometry width="50" height="50" relative="1" as="geometry">
            <mxPoint x="690" y="440" as="sourcePoint" />
            <mxPoint x="670" y="430" as="targetPoint" />
            <Array as="points">
              <mxPoint x="780" y="440" />
            </Array>
          </mxGeometry>
        </mxCell>
      </root>
    </mxGraphModel>
  </diagram>
</mxfile>
